<?xml version="1.0" encoding="UTF-8"?>
<svg id="Layer_2" xmlns="http://www.w3.org/2000/svg" version="1.1" xmlns:xlink="http://www.w3.org/1999/xlink" viewBox="0 0 661 206.3">
  <!-- Generator: Adobe Illustrator 29.2.1, SVG Export Plug-In . SVG Version: 2.1.0 Build 116)  -->
  <defs>
    <style>
      .st0 {
        fill: #231f20;
      }
    </style>
  </defs>
  <g id="Layer_1-2">
    <g>
      <path class="st0" d="M97.5,69.1c.8,0-.3,3.5-1.3,5.1-2.4,3.5-5,6.9-7.5,10.2-1.8,2.2-3.7,4.3-5.6,6.4l-1.9,1.9c-2.9,3.2-6.2,5.6-10.1,7.4-2.2,1-4.6,1.6-7,1.6s-3.5-.5-5.3-1.3c-1.8-.8-3.4-1.9-4.8-3.2l-1.4-1.4c-1-1-1.9-2.1-2.9-2.2-.8,0-1.3,1-1.6,2.1l-.5,1.4-1.3,5c-.5,2.2-1.1,4.3-1.8,6.6l-1,2.4c-.5,1.4-.5,3-1.3,4.5l-1.3,2.4c-.6,1.1-2.2,1.6-3.5,1.3-.5-.2-.8,0-1.3-.5-.3-.3-.6-.8-.8-1.3-.8-1.3-1.3-2.6-1.6-4l-1.1-4.6-1-5.8-1-6.2-1-5.8c-.5-3.4-1-6.7-2.2-9.9l-1-1.9c-1.1.8-1.8,1.9-2.4,3-1.6,3-2.9,6.1-4,9.3-.5,1.6-1.1,3.2-1.8,4.8-.8,2.1-1.6,4.3-2.1,6.6l-1.3,5.1c-1,3.4-1.9,6.9-2.6,10.4-.6,3.4-1.3,6.7-1.8,10.1-.5,2.7-.8,5.4-1.1,8.2-.3,2.1-.6,4.2-.8,6.2-.5,1-1.3,1.1-2.2,1l-.6-.5c-.2-.2-.3-.5-.3-.6-.3-1.6-.5-3.4-.5-4.8s0-1.9-.2-2.9c-.3-1.6-.2-3.4-.2-5s0-3.4-.2-5-.2-3.2-.2-5,0-3.4-.2-5.1c-.2-1.6-.2-3.2-.2-4.8s0-3.2-.2-4.8c-.2-1.1-.2-2.1-.2-3.2,0-1.6-.2-3.4-.3-5-.2-1.1-.2-2.2-.2-3.4s0-2.4-.2-3.5c-.3-1.1-.3-2.2-.3-3.5s-.2-2.4-.3-3.7c-.2-1.1-.3-2.4-.3-3.7s-.2-1.3-.2-1.9c-.2-2.1-.3-4.2-1-6.1-.2-.6-.3-1.3-1-1.6-.2,0-.3-.2-.2-.3,1.9-.8,3.7,0,4.3,1.9.3,1.3.6,2.6.8,3.8.3,2.4.6,4.8.8,7.2.2,1.6.2,3.2.5,4.8.2,1.6.2,3,.2,4.6s0,1.1.2,1.6c0,.5.2,1.1.2,1.6,0,1.6-.2,3,.2,4.6.5,2.9,0,5.8.3,8.6.5,3,.2,6.2.5,9.3.3,2.2.3,4.5.5,6.7.5-2.7,1-5.4,1.6-8.2,1.3-6.1,3-12.2,4.8-18.2.8-2.7,1.9-5.6,2.9-8.3l1.8-5c.6-1.8,1.6-3.5,2.6-5.3.6-1.1,1.3-2.4,2.7-3,1.9-.2,3.4.5,4.5,2.1,1.6,2.6,2.4,5.3,2.9,8.2.3,1.6.6,3.2.8,4.8l.3,1.9.6,3.7,1,5.8c.3,3.2,1.1,6.2,1.6,9.3.2,1.1.3,2.7,1.1,3.4,1,.5,1.8-2.2,2.1-3.5,1.3-5,2.1-10.1,3.4-15,.6-2.6,1.6-5.3,3.5-5.9,2.6-.6,4.6.5,6.4,2.2.3.5.8.8,1.3,1.1,1.3,1.1,2.4,2.4,3.8,3.4s3.2,1.4,5,1.6c1.1.2,2.2-.2,3.4-.5,3.8-1,7.4-3,10.4-5.6l1.3-1.1c2.9-2.7,5.4-5.9,8-9.1l1.1-1.4c3.2-3.8,6.1-7.8,8.8-12,.2-.3.5-.6.8-.8l.8.3h0Z"/>
      <path class="st0" d="M134.9,79.7c.2.2.2.3.2.5-.2.3-.6.5-1,.6-4.3,1.9-7.2,5.4-10.1,8.8l-2.9,3.4-2.6,2.9c-4.2,4.6-8.5,9.4-13.8,13.3-1.6,1.1-3.5,1.9-5.4,2.4-.8.2-1.6.3-2.4.3-1.3,0-2.4-.3-3.4-1-1.6-1-2.7-2.6-3.2-4.6-.5-1.6-.6-3.2-.6-4.8.8-9.4,3.8-17.9,9.1-25.3,1-1.4,2.1-2.6,3.4-3.4,1.4-.8,3-1,4.5-.5,1.4.6,2.4,1.9,2.9,3.5.6,2.6,0,5.1-.6,7-1.9,5.9-5.3,11-10.4,15.7-1.1,1.1-2.6,2.4-4.3,2.9-1.1.3-1.3,1-1.3,1.9v.5c.5,3.2,1.3,5,2.6,5.6s3.2,0,5.9-1.9c4-2.7,7.4-6.2,10.6-9.6l7.2-7.2c2.7-2.9,5.6-5.9,8.6-8.6,1.4-1.3,3.2-2.4,5.3-3.2.8-.3,1.6-.2,1.9.5l-.2.3h0ZM93.8,99.7c-.2.5-.2.6,0,.8s.3,0,.6-.3c.8-.5,1.4-1,2.1-1.6,4.3-4.2,7.5-9.1,9.6-14.7.6-1.8,1-3.7,1.1-5.8v-.5c0-.3,0-.8-.2-1.3-.2-.8-.3-1.3-.6-1.4h-.2c-.3,0-.8.2-1.4.5-1.1.6-2.1,1.6-3.2,3-2.9,4-5,8.6-6.7,14.7-.5,1.6-.8,3.2-1.1,4.8l-.5,1.4s.5.3.5.3Z"/>
      <path class="st0" d="M199.9,84.3l1.3,1.1c.5,1.8-5.4,9.1-10.6,15l-.2.2c-2.2,2.9-4.6,5.6-7.4,8.2l-2.1,1.9-1.6,1.3c-2.1,1.3-4,1.6-5.8,1.3s-3.5-1.4-4.8-3.5c-.5-.6-1-1.4-1.3-2.2-1.1-2.2-1.9-4.8-2.6-7.2,0-.2-.2-.5-.2-.6-1-3.7-1.8-7.5-2.6-11.2l-.6-2.9-1.3-5.9-1-3.4-.5-1c-.2-.6-.3-.8-.3-.8,0,0-.2,0-.6.5-.8,1.1-1.4,2.4-2.1,4.2-3.2,8-5.8,16-8,24.3l-.8,3.2c-1.4,5-2.6,10.1-3.5,15-.6,3.4-1.4,6.9-2.2,10.2l-1.1,3.2c-.2.6-.5,1.4-1.4,1.4s-1,0-1.3-.2c-.5-.2-.8-.5-1-1.1-.6-1.6-.8-3.2-1-4.8v-.8c-.6-10.1-1.3-20.6-1.8-31-.6-15.7-1.3-31.5-1.8-47.2l-.5-7.7c-.3-8.5-.5-17.1-.5-25.8v-6.4c0-3.5.3-6.2.8-8.8v-.3c.2-.5.3-1.4,1.4-1.3,1,.2,1.1,1,1.3,1.6l.5,1.9v1.3c-.3,0-.5.2-.8.2l-.6-1.3v1c-.2.5-.2,1-.2,1.4s-.2,1-.2,1.4c0,2.2-.2,4.3-.2,6.6,0,8.8.5,17.9.8,26.6,0,1.3.2,2.4.2,3.7l.5,15.4c0,2.1.2,4.3.2,6.4l1,22.9c0,.8.2,1.6.2,2.4l.3,4.8c0,1.1.2,2.1.2,3.2l.3,6.4c.3,7.5.6,15.2,1.3,22.7v.2c0,.5,0,1,.2,1.6.8-3,1.4-5.9,1.9-8.8l.5-3.4c3.2-15.4,7.2-29,12.2-41.6.5-1.4,1.3-3,2.4-4.5.8-1,1.6-1.4,2.4-1.4s1.8.5,2.7,1.4c1.1,1.1,1.6,2.6,2.1,4.2,1.1,3.5,1.9,7.2,2.6,10.7l1,5.3v.2c1,4.5,1.9,9.1,3.8,13.4.3.8.8,1.6,1.3,2.2.8,1.1,1.8,1.4,3,1,1.6-.6,2.9-1.6,4-2.6l1-1,3.7-3.4c.6-.6,1.3-1.1,1.8-1.8,2.9-3,13.3-14.9,14.9-17.4l.2-.2h.2c.2,0,.3.2.3.3h0Z"/>
      <path class="st0" d="M293.5,69.1c.8,0-.3,3.5-1.3,5.1-2.4,3.5-5,6.9-7.5,10.2-1.8,2.2-3.7,4.3-5.6,6.4l-1.9,1.9c-2.9,3.2-6.2,5.6-10.1,7.4-2.2,1-4.6,1.6-7,1.6s-3.5-.5-5.3-1.3c-1.8-.8-3.4-1.9-4.8-3.2l-1.4-1.4c-1-1-1.9-2.1-2.9-2.2-.8,0-1.3,1-1.6,2.1l-.5,1.4-1.3,5c-.5,2.2-1.1,4.3-1.8,6.6l-1,2.4c-.5,1.4-.5,3-1.3,4.5l-1.3,2.4c-.6,1.1-2.2,1.6-3.5,1.3-.5-.2-.8,0-1.3-.5-.3-.3-.6-.8-.8-1.3-.8-1.3-1.3-2.6-1.6-4l-1.1-4.6-1-5.8-1-6.2-1-5.8c-.5-3.4-1-6.7-2.2-9.9l-1-1.9c-1.1.8-1.8,1.9-2.4,3-1.6,3-2.9,6.1-4,9.3-.5,1.6-1.1,3.2-1.8,4.8-.8,2.1-1.6,4.3-2.1,6.6l-1.3,5.1c-1,3.4-1.9,6.9-2.6,10.4-.6,3.4-1.3,6.7-1.8,10.1-.5,2.7-.8,5.4-1.1,8.2-.3,2.1-.6,4.2-.8,6.2-.5,1-1.3,1.1-2.2,1l-.6-.5c-.2-.2-.3-.5-.3-.6-.3-1.6-.5-3.4-.5-4.8s0-1.9-.2-2.9c-.3-1.6-.2-3.4-.2-5s0-3.4-.2-5-.2-3.2-.2-5,0-3.4-.2-5.1c-.2-1.6-.2-3.2-.2-4.8s0-3.2-.2-4.8c-.2-1.1-.2-2.1-.2-3.2,0-1.6-.2-3.4-.3-5-.2-1.1-.2-2.2-.2-3.4s0-2.4-.2-3.5c-.3-1.1-.3-2.2-.3-3.5s-.2-2.4-.3-3.7c-.2-1.1-.3-2.4-.3-3.7s-.2-1.3-.2-1.9c-.2-2.1-.3-4.2-1-6.1-.2-.6-.3-1.3-1-1.6-.2,0-.3-.2-.2-.3,1.9-.8,3.7,0,4.3,1.9.3,1.3.6,2.6.8,3.8.3,2.4.6,4.8.8,7.2.2,1.6.2,3.2.5,4.8.2,1.6.2,3,.2,4.6s0,1.1.2,1.6c0,.5.2,1.1.2,1.6,0,1.6-.2,3,.2,4.6.5,2.9,0,5.8.3,8.6.5,3,.2,6.2.5,9.3.3,2.2.3,4.5.5,6.7.5-2.7,1-5.4,1.6-8.2,1.3-6.1,3-12.2,4.8-18.2.8-2.7,1.9-5.6,2.9-8.3l1.8-5c.6-1.8,1.6-3.5,2.6-5.3.6-1.1,1.3-2.4,2.7-3,1.9-.2,3.4.5,4.5,2.1,1.6,2.6,2.4,5.3,2.9,8.2.3,1.6.6,3.2.8,4.8l.3,1.9.6,3.7,1,5.8c.3,3.2,1.1,6.2,1.6,9.3.2,1.1.3,2.7,1.1,3.4,1,.5,1.8-2.2,2.1-3.5,1.3-5,2.1-10.1,3.4-15,.6-2.6,1.6-5.3,3.5-5.9,2.6-.6,4.6.5,6.4,2.2.3.5.8.8,1.3,1.1,1.3,1.1,2.4,2.4,3.8,3.4s3.2,1.4,5,1.6c1.1.2,2.2-.2,3.4-.5,3.8-1,7.4-3,10.4-5.6l1.3-1.1c2.9-2.7,5.4-5.9,8-9.1l1.1-1.4c3.2-3.8,6.1-7.8,8.8-12,.2-.3.5-.6.8-.8l.8.3h0Z"/>
      <path class="st0" d="M330.9,79.7c.2.2.2.3.2.5-.2.3-.6.5-1,.6-4.3,1.9-7.2,5.4-10.1,8.8l-2.9,3.4-2.6,2.9c-4.2,4.6-8.5,9.4-13.8,13.3-1.6,1.1-3.5,1.9-5.4,2.4-.8.2-1.6.3-2.4.3-1.3,0-2.4-.3-3.4-1-1.6-1-2.7-2.6-3.2-4.6-.5-1.6-.6-3.2-.6-4.8.8-9.4,3.8-17.9,9.1-25.3,1-1.4,2.1-2.6,3.4-3.4,1.4-.8,3-1,4.5-.5,1.4.6,2.4,1.9,2.9,3.5.6,2.6,0,5.1-.6,7-1.9,5.9-5.3,11-10.4,15.7-1.1,1.1-2.6,2.4-4.3,2.9-1.1.3-1.3,1-1.3,1.9v.5c.5,3.2,1.3,5,2.6,5.6s3.2,0,5.9-1.9c4-2.7,7.4-6.2,10.6-9.6l7.2-7.2c2.7-2.9,5.6-5.9,8.6-8.6,1.4-1.3,3.2-2.4,5.3-3.2.8-.3,1.6-.2,1.9.5l-.2.3h0ZM289.8,99.7c-.2.5-.2.6,0,.8s.3,0,.6-.3c.8-.5,1.4-1,2.1-1.6,4.3-4.2,7.5-9.1,9.6-14.7.6-1.8,1-3.7,1.1-5.8v-.5c0-.3,0-.8-.2-1.3-.2-.8-.3-1.3-.6-1.4h-.2c-.3,0-.8.2-1.4.5-1.1.6-2.1,1.6-3.2,3-2.9,4-5,8.6-6.7,14.7-.5,1.6-.8,3.2-1.1,4.8l-.5,1.4.5.3h0Z"/>
      <path class="st0" d="M373.2,50.2c.5.3,1.1.6.8,1.3s-1,.3-1.4.2c-1.6-.6-3.4-1.3-5-1.6-2.6-.5-5-.8-7.5-1.1l-2.7-.5c-5.4-.8-10.9-1.3-16.3-1.1-1.8,0-3.7.2-5.6.3-1.3.2-1.8.6-1.9,1.9,0,1-.2,1.8-.2,2.7-.5,8-1,15.8-1,23.8s.2,5.3.2,8c.3,12.8.8,25.6,1.8,38.2.3,5,.5,9.9.6,14.9,0,1-.2,2.1-.3,3-.2,1.1-1,1.4-1.9,1.1-.8-.3-1.3-.8-1-1.8.6-1.8.3-3.7.2-5.4l-1-11.4-1.4-19.8c-.5-7.5-.8-15-.8-22.7s0-5.8.2-8.6c0-1.8.2-3.7.2-5.4.2-5.4.5-10.7,1-16.2.2-1.1-.3-1.3-1.3-1.1-6.2,1.1-12.2,2.9-17.9,5.4-.8.3-1.6.6-2.4,1.1l-3.8,1.9c-1.3.8-2.6,1.6-3.5,2.7-.8,1-2.1,1-3.2.2v-.5c8.6-6.7,18.6-10.7,29.1-13,2.4-.5,2.9-.5,3.2-1.4s.2-1.3.3-2.6c.5-6.4,1.1-12.8,1.8-19.2.2-.8,0-2.1,1.3-2.1s1.4,1.3,1.4,2.4c0,3.4-.3,6.6-.5,9.9-.2,2.4-.3,5-.3,7.4s-.2,1-.2,1.4c-.2,2.6-.3,2.7,2.2,2.6,1.8-.2,3.7-.2,5.4-.2,9.9,0,19.5,1.9,29.1,4.2,1,.2,1.8.5,2.6,1.1,0,0-.2-.2-.2-.2Z"/>
      <path class="st0" d="M490.9,86.4c.8.2,1.4.5,1.9,1,.5.6.6,1.4.5,2.2-.3,1.6-1.1,2.9-1.9,4.2-5.3,8.6-12.8,15.2-21,21-5.3,3.7-10.7,7.2-16.3,10.2-1.1.6-1.4,1.3-1.4,2.4s.2,2.4.2,3.7c.2,3.7.5,7.2.5,10.9s0,5-.2,7.4c-.5,10.4-1.9,20.6-6.2,30.2-4.8,10.7-13,17.9-24,22.1-7.4,2.7-14.7,4.5-22.2,4.6-6.2.2-12.5-.6-18.7-2.4-10.2-2.9-19.4-7.8-26.2-16.3-2.6-3.2-4.5-6.7-5.1-10.7,0-.2-.2-.3-.3-.5v-3.8c.2-.2.3-.3.3-.5,1.8-6.6,6.1-10.6,12-13.4,8.6-4.2,17.8-6.9,26.7-9.6l7.7-2.4c17.4-5.8,34.6-12.2,50.9-20.8,1-.5,1.3-1.1,1.3-2.2-.2-1.3-.2-2.6-.2-3.8l-1.6-26.4c-.3-5.6-.3-11.2-.8-16.8,0-.6,0-1.3-.5-1.9-1.3,1-1.8,2.2-2.4,3.4-5,8.2-9.9,16.3-16,23.7-3.4,4.2-6.9,8.2-11,11.5-1.1.8-2.2,1.6-3.5,2.1-3.7,1.6-7,.3-8.5-3.5-1.3-3.2-1.3-6.6-1.1-9.9.2-7,1.3-13.9,3-20.8l1-3.5c1-3.5,1.9-6.7,2.2-10.4,0-.6,0-1.9,1.3-1.6,1.1.3,2.1,1,1.9,2.4-.3,2.4-1.3,4.6-1.9,7-1.8,6.6-3.5,13.1-4.5,19.8-.3,2.7-.6,5.4-.6,8s.3,5.3,1,7.8c.3,1.8.8,2.7,1.6,3s1.8.2,3.2-.8c4.5-2.7,7.8-6.7,11.2-10.7,6.9-8,12.3-17,17.8-25.9.8-1.3,1.6-2.6,2.6-3.7,1.8-2.1,3.7-1.8,5,.6.6,1.3.8,2.7,1,4.2.5,5.3.6,10.7,1,16.2l.5,8,1.4,20.2c0,.5,0,.8.2,1,.2.2.3.2,1-.2,12.6-7.5,25.3-15.2,34.6-27,1.3-1.8,2.6-3.5,3.4-5.6.5-1,.8-1.9-.8-2.1-.3,0-1-.2-.8-.6.2-.6.6-.3,1-.3l.5-.3h0ZM446.8,169.3c2.4-9.4,3.2-19,3-28.8v-9.1c-.1-2.8-1.4-3.5-3.8-2.2-11.5,5.8-23.4,10.4-35.5,14.4l-11.7,3.7c-2.7,1-5.4,1.9-8.2,2.7l-8.2,2.7-8.6,2.9c-5.8,2.1-11.4,4.5-16.3,8.5-3.4,2.7-4.6,5.9-4.8,9.8-.2,4.6,1.8,8.6,4.5,12.2,5.3,6.9,12.3,11.5,20.3,14.7,6.6,2.4,13.1,3.5,19.7,3.5s9.9-.5,14.9-1.6c18.2-4,30.2-14.6,34.7-33v-.3h0Z"/>
      <path class="st0" d="M543.6,124.8c.6.3,1.1.8,1.4,1.4-1.6,3.8-3,7.7-5,11.2-2.2,4.3-4.6,8.6-8.2,12.2-1.6,1.6-3.5,2.9-5.9,3.4-.6.2-1.1.2-1.8.2-1.8,0-3.2-.5-4.6-1.4-1-.6-1.8-1.4-2.6-2.2-1.1-1.3-2.1-2.7-2.9-4.3-1.9-3.5-3.2-7.4-4.2-11.2-.6-2.2-1.3-4.5-1.4-6.9l-1.1-7.2-.3-3.8c0-.6,0-1.3-.2-1.9-.8-5.1-.5-10.2-.6-15.4,0-1.6.5-3.2.3-4.8v-1.1c-1.1,1.3-2.1,2.2-2.9,3.4l-2.2,2.6-2.2,2.6-2.7,2.9c-1,1-1.8,1.9-2.7,2.7-2.2,2.1-4.5,4-7.2,5.4-1.1.6-2.4.8-3.7.8h-1.9c-1.3-.2-2.4-1-3.4-1.9-1.6-1.6-2.4-3.5-2.9-5.6s-.8-4.2-1-6.2c-.2-1-.3-1.9-.3-3-.2-1-.2-2.1,0-3.2,0-1.1.2-2.4.2-3.5,0-1.8.2-3.4.3-5.1l.5-4.3c.2-1.9.5-3.8.8-5.8l.3-2.7.5-6.1c0-.3.2-.6.3-.8l.6-.5c1.1-.3,1.8.2,2.1,1.3-.2,1.1-.3,2.4-.6,3.7-.3,1.9-.6,3.8-.8,5.8-.2,1.8-.5,3.5-.8,5.1-.2.6-.2,1.1-.2,1.6s-.2,1.1-.2,1.6c-.2,1-.3,1.9-.3,3s-.2,2.4-.2,3.7c-.2,2.4-.2,5,0,7.4.2,3.5.6,7,1.9,10.4l.8,1.6c.6,1,1.4,1.6,2.6,2.1,3-.5,5.4-2.2,7.7-4.2,2.4-2.1,4.6-4.3,6.7-6.7,2.7-3,5.4-6.1,7.8-9.4l1.9-2.2c1.3-1.3,1.4-2.9,1.4-4.5l.5-5c0-.5.2-1.1.2-1.8s.2-1,.2-1.4c.2-1,.3-1.9.3-2.9s.3-2.2.5-3.4l.3-1.8,1.1-7.4,1-5.8,1.6-9.1c.8-5,2.1-9.9,3.5-14.9l.5-1.9c1.1-4.2,2.6-8.3,4.3-12.3,1-2.4,2.1-4.6,3.2-6.7l1.9-3.2c1-1.4,1.9-2.9,3.2-4,.8-.8,1.8-1.4,2.7-2.1,2.4-1.4,4.8-1.3,6.9.6s2.9,4.3,3.4,6.9.3,5.1.3,7.7-.3,5.4-.6,8c-.8,5.4-2.2,10.7-4.2,15.8-.6,1.9-1.4,3.8-2.2,5.8-1.1,2.7-2.4,5.4-3.8,8.2-2.2,4.5-4.6,8.8-7.2,13.1l-5.3,8.3-1.1,1.8c-2.6,3.8-5.1,7.5-7.8,11.2-.2,3.8-.3,7.7-.3,11.5s-.2,2.6-.2,3.8v3.8c0,3.4.3,6.7.6,10.1,0,.6.2,1.1.2,1.9.3,3,.8,6.1,1.3,9.1l.3,1.8c.6,3.5,1.6,7,2.9,10.4.2.6.3,1.3.6,1.9,1,2.6,2.4,4.8,4.2,6.9.5.6,1,1.1,1.4,1.4,1,.8,2.1,1,3.2.8l1.9-.6c1.3-.5,2.4-1.3,3.4-2.2,1.3-1.3,2.6-2.7,3.7-4.3s2.2-3.2,3.2-5c2.4-4.2,4.5-8.5,6.1-13,.2-.6.3-.8,1.3-1.3l-.3-.6h0ZM485,35.5c-.2,0-.3-.2-.5-.2-.6-.3-1.1-.8-.8-1.8l.6-1.8c0-.2.2-.5.2-.6.2-1.3,1.3-1.1,2.2-1,1,.2,1.9.3,2.1,1.3.2,1.6-2.4,4-3.8,3.8,0,0,0,.2,0,.2ZM511.1,81.3l4.8-7,2.6-3.8c1.8-2.6,3.4-5.1,5-7.8l3.7-6.4,3.4-6.4,1-1.9c.6-1.3,1.1-2.6,1.6-3.8l1.6-4,1.4-4c1-2.9,1.8-5.9,2.4-9l.5-2.2c.6-3.5,1.3-7,1.1-10.7-.2-1.3-.2-2.6-.2-3.8,0-2.2-.5-4.3-1.3-6.4-.5-1.4-1.3-2.4-2.6-2.7-.6.2-1.3.3-1.8.6-1.1.6-2.1,1.4-2.9,2.2-1.3,1.1-2.2,2.4-3.2,3.7s-1.8,2.7-2.4,4.2c-3,6.1-5,12.5-6.9,18.9l-1.4,5.8-.6,2.4-1.4,7.2-.8,4.2c-.3,1.4-.5,2.7-.6,4l-.8,6.1c-.2.6-.3,1.4-.3,2.1l-1,7.2c-.2,1.1-.2,2.2-.5,3.4-.5,2.4-.3,4.8-.8,7.2,0-.2.2-.3.2-.5,0,.5,0,1.1.3,1.6h0Z"/>
      <path class="st0" d="M580.5,148.8c0,.3.2.5.2.6s-.2.5-.5.5c-.8.2-1.6.2-1.9-.6-.5-1.1-.8-2.2-1-3.4-3.4-15.8-6.2-31.7-7.5-47.7l-.5-7.5c-.3-6.4-.3-12.6-.2-19,.2-5.1.6-10.1,1.1-15.2.3-3.5.5-7.2,1.1-10.7,0-.5,0-1-.3-1.4-2.2,7.2-4.2,14.4-7,21.3-.5,1.1-.3,1.6,1,1.9,1.1.2,1.9.8,2.4,1.8.2.5.5,1-.2,1.3-.5.2-.8,0-1-.5l-.5-1c-1-1.1-2.4-1-3,.5-1.8,3.8-3.7,7.5-5.8,11.2-1.1,2.1-2.2,4-3.5,5.9l-1.8,2.9c-1.3,2.1-2.7,4.2-4.2,6.1l-2.4,2.9c-1.6,1.8-3.2,3.4-5.1,4.8-.6.5-1.4,1-2.2,1.3-3.4,1.3-5.8-.5-5.4-4,.3-3.7,2.1-6.9,3.8-9.9,4.6-7.7,10.2-14.4,17.6-19.5,1.6-1.1,3.4-2.2,5.3-2.7,1.6-.5,2.1-1.6,2.6-2.9,4.2-10.1,7.2-20.5,9.6-31,1-4.5,2.1-8.8,3.2-13.1.2-.8,0-2.1,1.4-1.8s1.9,1.3,1.8,2.6c-.3,3.5-.6,7-1.3,10.6-2.6,15.4-3.7,30.7-3.7,46.2s0,10.4.3,15.5c.5,9.8,1.8,19.5,3,29.3,1.1,8.3,2.6,16.6,4.5,25h0ZM539.7,99.5c4.8-4.5,8.8-9.8,12.2-15.4l-.2-.2c2.7-4.5,5.3-9.1,7.4-14.1-1.1.2-1.8.6-2.4,1.1-9.4,6.1-16,14.6-20.8,24.5-.5,1-.6,1.8-1,2.7s-.5,2.1-.5,3c0,1.4.5,1.9,1.8,1.1,1.3-.8,2.4-1.8,3.5-2.9Z"/>
      <path class="st0" d="M618.8,80.3c.5.5,0,2.2,0,2.2-.3,1.3-.6,2.6-1.1,3.7-3.4,7.2-6.9,14.9-11.5,22.1l-1,1.3c-.8,1.1-1.6,2.4-2.6,3.5-.6.8-1.4,1.4-2.2,2.1s-1.8,1.1-2.6,1.3c-.5.2-.8.2-1.3.2s-.6,0-1-.2c-1.6-.5-2.9-1.8-3.7-3.7-1.4-3.2-1.6-6.7-1.8-10.1v-4.8c.2-6.7.6-12.8,1.4-18.7,0-.5.2-.8.3-1.1.2-.5.3-1,.3-1.6v-.2s0-.2.2-.3l.5-.3c.2,0,.5-.2.6-.2.3,0,.5.2.6.3.2.2.3.5.3.8v1.4c0,1,0,1.9-.5,2.9-.6,1.4-.6,3-.6,4.6v5.4c0,1-.2,2.1-.2,3-.2,2.1-.2,4-.2,6.1s.2,3,.3,4.6v.3c.2,2.4.5,5,1.4,7.2.5,1.1,1,1.6,1.4,1.8s1.1-.2,2.1-1c2.2-1.8,3.8-4.2,5.6-6.7,3.4-5.3,6.7-11.4,10.2-18.7l1.6-3.2,1-1.8.6-1.3c.2-.5.6-1,1.3-1.3.3-.2.5-.2.6,0-.2,0-.3.2-.5.2h0ZM598.6,41.8l.5-.3c-.5,0-1-.2-1.3-.6-.5-.6,0-1.3.3-1.8.2-.3.3-.5.2-1-.3-.6-.3-1.3,0-1.8.5-.6,1.3-1,2.2-1,.2.2.5.2.8.2.8.3,1.8.6,2.2,1.6.2.3.2.6.2,1-.2.8-.8,1.3-1.4,1.8l-.5.5c-.6.6-1.3,1-1.9,1.3-.3.2-.5.2-.8.2h-.5,0Z"/>
      <path class="st0" d="M656.7,54.7c.6,0,1.3,0,1.9.2l-.2-.2c1.8.6,2.9,2.9,2.4,5-.6,3.2-2.2,5.9-4,8.6-5.4,8.3-11.8,15.5-18.6,22.7l-2.1,2.1c-5.6,5.8-11.2,11.5-17,17.1l-2.2,2.1c-2.6,2.4-5.1,4.8-7.7,7.8l5.8.5c11.5.6,23,1.8,34.4,3.8,1.8.3,3.5.6,4.2,2.6-12.3-2.6-24.5-3.2-36.8-4-1,0-2.1-.2-3-.2-1.4-.2-2.9-.3-4.3-.8-2.4-1-2.9-2.6-1.1-4.6,2.6-2.9,5.4-5.4,8.2-8.2,1.4-1.3,2.7-2.7,4-4.2l2.2-2.2c9.4-9.8,18.9-19.4,27.2-30.1l1.9-2.4c2.6-3.4,5-6.9,6.4-10.9.3-.8,1-1.8.3-2.4-.6-.6-1.8-.3-2.6-.2-6.6,1.4-12.6,3.8-18.6,6.7-3,1.4-6.2,2.7-9.1,4.5-.8.5-1.4,1-2.1,1.6s-.8.3-1.1,0c-.5-.5.2-.8.5-1,1.4-1.1,3-2.1,4.8-2.7,1-.3,1.8-1.4,2.7-1.9,6.9-3.8,14.1-7,21.6-9.1.6-.2,1.3-.3,1.9-.3h0Z"/>
    </g>
  </g>
</svg>