<?xml version="1.0" encoding="UTF-8"?>
<svg id="Layer_2" data-name="Layer 2" xmlns="http://www.w3.org/2000/svg" xmlns:xlink="http://www.w3.org/1999/xlink" viewBox="0 0 660.96 206.26">
  <defs>
    <style>
      .cls-1 {
        fill: url(#linear-gradient-2);
      }

      .cls-2 {
        fill: url(#linear-gradient-6);
      }

      .cls-3 {
        fill: url(#linear-gradient-11);
      }

      .cls-4 {
        fill: url(#linear-gradient-10);
      }

      .cls-5 {
        fill: url(#linear-gradient-5);
      }

      .cls-6 {
        fill: url(#linear-gradient-7);
      }

      .cls-7 {
        fill: url(#linear-gradient-9);
      }

      .cls-8 {
        fill: url(#linear-gradient-3);
      }

      .cls-9 {
        fill: url(#linear-gradient);
      }

      .cls-10 {
        fill: url(#linear-gradient-4);
      }

      .cls-11 {
        fill: url(#linear-gradient-8);
      }
    </style>
    <linearGradient id="linear-gradient" x1="0" y1="106.35" x2="97.78" y2="106.35" gradientUnits="userSpaceOnUse">
      <stop offset="0" stop-color="#000" stop-opacity=".2"/>
      <stop offset=".5" stop-color="#000" stop-opacity=".1"/>
      <stop offset="1" stop-color="#000" stop-opacity=".3"/>
    </linearGradient>
    <linearGradient id="linear-gradient-2" x1="89.83" y1="91.94" x2="135.11" y2="91.94" xlink:href="#linear-gradient"/>
    <linearGradient id="linear-gradient-3" x1="131.1" y1="68.95" x2="201.21" y2="68.95" xlink:href="#linear-gradient"/>
    <linearGradient id="linear-gradient-4" x1="195.99" x2="293.78" xlink:href="#linear-gradient"/>
    <linearGradient id="linear-gradient-5" x1="285.82" y1="91.94" x2="331.1" y2="91.94" xlink:href="#linear-gradient"/>
    <linearGradient id="linear-gradient-6" x1="297.82" y1="81.58" x2="374.07" y2="81.58" xlink:href="#linear-gradient"/>
    <linearGradient id="linear-gradient-7" x1="350.29" y1="135.83" x2="493.4" y2="135.83" xlink:href="#linear-gradient"/>
    <linearGradient id="linear-gradient-8" x1="473.37" y1="76.56" x2="545.02" y2="76.56" xlink:href="#linear-gradient"/>
    <linearGradient id="linear-gradient-9" x1="532.34" y1="84.82" x2="580.69" y2="84.82" xlink:href="#linear-gradient"/>
    <linearGradient id="linear-gradient-10" x1="590.13" y1="76" x2="619.25" y2="76" xlink:href="#linear-gradient"/>
    <linearGradient id="linear-gradient-11" x1="607.31" y1="90.88" x2="660.96" y2="90.88" xlink:href="#linear-gradient"/>
  </defs>
  <g id="Layer_1-2" data-name="Layer 1">
    <g>
      <path class="cls-9" d="m97.51,69.12c.8,0-.32,3.52-1.28,5.12-2.4,3.52-4.96,6.88-7.52,10.24-1.76,2.24-3.68,4.32-5.6,6.4l-1.92,1.92c-2.88,3.2-6.24,5.6-10.08,7.36-2.24.96-4.64,1.6-7.04,1.6-1.76,0-3.52-.48-5.28-1.28-1.76-.8-3.36-1.92-4.8-3.2l-1.44-1.44c-.96-.96-1.92-2.08-2.88-2.24-.8,0-1.28.96-1.6,2.08l-.48,1.44-1.28,4.96c-.48,2.24-1.12,4.32-1.76,6.56l-.96,2.4c-.48,1.44-.48,3.04-1.28,4.48l-1.28,2.4c-.64,1.12-2.24,1.6-3.52,1.28-.48-.16-.8,0-1.28-.48-.32-.32-.64-.8-.8-1.28-.8-1.28-1.28-2.56-1.6-4l-1.12-4.64-.96-5.76-.96-6.24-.96-5.76c-.48-3.36-.96-6.72-2.24-9.92l-.96-1.92c-1.12.8-1.76,1.92-2.4,3.04-1.6,3.04-2.88,6.08-4,9.28-.48,1.6-1.12,3.2-1.76,4.8-.8,2.08-1.6,4.32-2.08,6.56l-1.28,5.12c-.96,3.36-1.92,6.88-2.56,10.4-.64,3.36-1.28,6.72-1.76,10.08-.48,2.72-.8,5.44-1.12,8.16-.32,2.08-.64,4.16-.8,6.24-.48.96-1.28,1.12-2.24.96l-.64-.48c-.16-.16-.32-.48-.32-.64-.32-1.6-.48-3.36-.48-4.8,0-.96,0-1.92-.16-2.88-.32-1.6-.16-3.36-.16-4.96s0-3.36-.16-4.96c-.16-1.6-.16-3.2-.16-4.96,0-1.6,0-3.36-.16-5.12-.16-1.6-.16-3.2-.16-4.8s0-3.2-.16-4.8c-.16-1.12-.16-2.08-.16-3.2,0-1.6-.16-3.36-.32-4.96-.16-1.12-.16-2.24-.16-3.36s0-2.4-.16-3.52c-.32-1.12-.32-2.24-.32-3.52,0-1.12-.16-2.4-.32-3.68-.16-1.12-.32-2.4-.32-3.68,0-.64-.16-1.28-.16-1.92-.16-2.08-.32-4.16-.96-6.08-.16-.64-.32-1.28-.96-1.6-.16,0-.32-.16-.16-.32,1.92-.8,3.68,0,4.32,1.92.32,1.28.64,2.56.8,3.84.32,2.4.64,4.8.8,7.2.16,1.6.16,3.2.48,4.8.16,1.6.16,3.04.16,4.64,0,.48,0,1.12.16,1.6,0,.48.16,1.12.16,1.6,0,1.6-.16,3.04.16,4.64.48,2.88,0,5.76.32,8.64.48,3.04.16,6.24.48,9.28.32,2.24.32,4.48.48,6.72.48-2.72.96-5.44,1.6-8.16,1.28-6.08,3.04-12.16,4.8-18.24.8-2.72,1.92-5.6,2.88-8.32l1.76-4.96c.64-1.76,1.6-3.52,2.56-5.28.64-1.12,1.28-2.4,2.72-3.04,1.92-.16,3.36.48,4.48,2.08,1.6,2.56,2.4,5.28,2.88,8.16.32,1.6.64,3.2.8,4.8l.32,1.92.64,3.68.96,5.76c.32,3.2,1.12,6.24,1.6,9.28.16,1.12.32,2.72,1.12,3.36.96.48,1.76-2.24,2.08-3.52,1.28-4.96,2.08-10.08,3.36-15.04.64-2.56,1.6-5.28,3.52-5.92,2.56-.64,4.64.48,6.4,2.24.32.48.8.8,1.28,1.12,1.28,1.12,2.4,2.4,3.84,3.36s3.2,1.44,4.96,1.6c1.12.16,2.24-.16,3.36-.48,3.84-.96,7.36-3.04,10.4-5.6l1.28-1.12c2.88-2.72,5.44-5.92,8-9.12l1.12-1.44c3.2-3.84,6.08-7.84,8.8-12,.16-.32.48-.64.8-.8l.8.32Z"/>
      <path class="cls-1" d="m134.95,79.68c.16.16.16.32.16.48-.16.32-.64.48-.96.64-4.32,1.92-7.2,5.44-10.08,8.8l-2.88,3.36-2.56,2.88c-4.16,4.64-8.48,9.44-13.76,13.28-1.6,1.12-3.52,1.92-5.44,2.4-.8.16-1.6.32-2.4.32-1.28,0-2.4-.32-3.36-.96-1.6-.96-2.72-2.56-3.2-4.64-.48-1.6-.64-3.2-.64-4.8.8-9.44,3.84-17.92,9.12-25.28.96-1.44,2.08-2.56,3.36-3.36,1.44-.8,3.04-.96,4.48-.48,1.44.64,2.4,1.92,2.88,3.52.64,2.56,0,5.12-.64,7.04-1.92,5.92-5.28,11.04-10.4,15.68-1.12,1.12-2.56,2.4-4.32,2.88-1.12.32-1.28.96-1.28,1.92v.48c.48,3.2,1.28,4.96,2.56,5.6,1.28.64,3.2,0,5.92-1.92,4-2.72,7.36-6.24,10.56-9.6l7.2-7.2c2.72-2.88,5.6-5.92,8.64-8.64,1.44-1.28,3.2-2.4,5.28-3.2.8-.32,1.6-.16,1.92.48l-.16.32Zm-41.12,20c-.16.48-.16.64,0,.8.16.16.32,0,.64-.32.8-.48,1.44-.96,2.08-1.6,4.32-4.16,7.52-9.12,9.6-14.72.64-1.76.96-3.68,1.12-5.76v-.48c0-.32,0-.8-.16-1.28-.16-.8-.32-1.28-.64-1.44h-.16c-.32,0-.8.16-1.44.48-1.12.64-2.08,1.6-3.2,3.04-2.88,4-4.96,8.64-6.72,14.72-.48,1.6-.8,3.2-1.12,4.8l-.48,1.44.48.32Z"/>
      <path class="cls-8" d="m199.9,84.32l1.28,1.12c.48,1.76-5.44,9.12-10.56,15.04l-.16.16c-2.24,2.88-4.64,5.6-7.36,8.16l-2.08,1.92-1.6,1.28c-2.08,1.28-4,1.6-5.76,1.28-1.76-.32-3.52-1.44-4.8-3.52-.48-.64-.96-1.44-1.28-2.24-1.12-2.24-1.92-4.8-2.56-7.2,0-.16-.16-.48-.16-.64-.96-3.68-1.76-7.52-2.56-11.2l-.64-2.88-1.28-5.92-.96-3.36-.48-.96c-.16-.64-.32-.8-.32-.8,0,0-.16,0-.64.48-.8,1.12-1.44,2.4-2.08,4.16-3.2,8-5.76,16-8,24.32l-.8,3.2c-1.44,4.96-2.56,10.08-3.52,15.04-.64,3.36-1.44,6.88-2.24,10.24l-1.12,3.2c-.16.64-.48,1.44-1.44,1.44-.48,0-.96,0-1.28-.16-.48-.16-.8-.48-.96-1.12-.64-1.6-.8-3.2-.96-4.8v-.8c-.64-10.08-1.28-20.64-1.76-31.04-.64-15.68-1.28-31.52-1.76-47.2l-.48-7.68c-.32-8.48-.48-17.12-.48-25.76v-6.4c0-3.52.32-6.24.8-8.8v-.32c.16-.48.32-1.44,1.44-1.28.96.16,1.12.96,1.28,1.6l.48,1.92v1.28c-.32,0-.48.16-.8.16l-.64-1.28v.96c-.16.48-.16.96-.16,1.44s-.16.96-.16,1.44c0,2.24-.16,4.32-.16,6.56,0,8.8.48,17.92.8,26.56,0,1.28.16,2.4.16,3.68l.48,15.36c0,2.08.16,4.32.16,6.4l.96,22.88c0,.8.16,1.6.16,2.4l.32,4.8c0,1.12.16,2.08.16,3.2l.32,6.4c.32,7.52.64,15.2,1.28,22.72v.16c0,.48,0,.96.16,1.6.8-3.04,1.44-5.92,1.92-8.8l.48-3.36c3.2-15.36,7.2-28.96,12.16-41.6.48-1.44,1.28-3.04,2.4-4.48.8-.96,1.6-1.44,2.4-1.44s1.76.48,2.72,1.44c1.12,1.12,1.6,2.56,2.08,4.16,1.12,3.52,1.92,7.2,2.56,10.72l.96,5.28v.16c.96,4.48,1.92,9.12,3.84,13.44.32.8.8,1.6,1.28,2.24.8,1.12,1.76,1.44,3.04.96,1.6-.64,2.88-1.6,4-2.56l.96-.96,3.68-3.36c.64-.64,1.28-1.12,1.76-1.76,2.88-3.04,13.28-14.88,14.88-17.44l.16-.16h.16c.16,0,.32.16.32.32Z"/>
      <path class="cls-10" d="m293.5,69.12c.8,0-.32,3.52-1.28,5.12-2.4,3.52-4.96,6.88-7.52,10.24-1.76,2.24-3.68,4.32-5.6,6.4l-1.92,1.92c-2.88,3.2-6.24,5.6-10.08,7.36-2.24.96-4.64,1.6-7.04,1.6-1.76,0-3.52-.48-5.28-1.28-1.76-.8-3.36-1.92-4.8-3.2l-1.44-1.44c-.96-.96-1.92-2.08-2.88-2.24-.8,0-1.28.96-1.6,2.08l-.48,1.44-1.28,4.96c-.48,2.24-1.12,4.32-1.76,6.56l-.96,2.4c-.48,1.44-.48,3.04-1.28,4.48l-1.28,2.4c-.64,1.12-2.24,1.6-3.52,1.28-.48-.16-.8,0-1.28-.48-.32-.32-.64-.8-.8-1.28-.8-1.28-1.28-2.56-1.6-4l-1.12-4.64-.96-5.76-.96-6.24-.96-5.76c-.48-3.36-.96-6.72-2.24-9.92l-.96-1.92c-1.12.8-1.76,1.92-2.4,3.04-1.6,3.04-2.88,6.08-4,9.28-.48,1.6-1.12,3.2-1.76,4.8-.8,2.08-1.6,4.32-2.08,6.56l-1.28,5.12c-.96,3.36-1.92,6.88-2.56,10.4-.64,3.36-1.28,6.72-1.76,10.08-.48,2.72-.8,5.44-1.12,8.16-.32,2.08-.64,4.16-.8,6.24-.48.96-1.28,1.12-2.24.96l-.64-.48c-.16-.16-.32-.48-.32-.64-.32-1.6-.48-3.36-.48-4.8,0-.96,0-1.92-.16-2.88-.32-1.6-.16-3.36-.16-4.96s0-3.36-.16-4.96c-.16-1.6-.16-3.2-.16-4.96,0-1.6,0-3.36-.16-5.12-.16-1.6-.16-3.2-.16-4.8s0-3.2-.16-4.8c-.16-1.12-.16-2.08-.16-3.2,0-1.6-.16-3.36-.32-4.96-.16-1.12-.16-2.24-.16-3.36s0-2.4-.16-3.52c-.32-1.12-.32-2.24-.32-3.52,0-1.12-.16-2.4-.32-3.68-.16-1.12-.32-2.4-.32-3.68,0-.64-.16-1.28-.16-1.92-.16-2.08-.32-4.16-.96-6.08-.16-.64-.32-1.28-.96-1.6-.16,0-.32-.16-.16-.32,1.92-.8,3.68,0,4.32,1.92.32,1.28.64,2.56.8,3.84.32,2.4.64,4.8.8,7.2.16,1.6.16,3.2.48,4.8.16,1.6.16,3.04.16,4.64,0,.48,0,1.12.16,1.6,0,.48.16,1.12.16,1.6,0,1.6-.16,3.04.16,4.64.48,2.88,0,5.76.32,8.64.48,3.04.16,6.24.48,9.28.32,2.24.32,4.48.48,6.72.48-2.72.96-5.44,1.6-8.16,1.28-6.08,3.04-12.16,4.8-18.24.8-2.72,1.92-5.6,2.88-8.32l1.76-4.96c.64-1.76,1.6-3.52,2.56-5.28.64-1.12,1.28-2.4,2.72-3.04,1.92-.16,3.36.48,4.48,2.08,1.6,2.56,2.4,5.28,2.88,8.16.32,1.6.64,3.2.8,4.8l.32,1.92.64,3.68.96,5.76c.32,3.2,1.12,6.24,1.6,9.28.16,1.12.32,2.72,1.12,3.36.96.48,1.76-2.24,2.08-3.52,1.28-4.96,2.08-10.08,3.36-15.04.64-2.56,1.6-5.28,3.52-5.92,2.56-.64,4.64.48,6.4,2.24.32.48.8.8,1.28,1.12,1.28,1.12,2.4,2.4,3.84,3.36s3.2,1.44,4.96,1.6c1.12.16,2.24-.16,3.36-.48,3.84-.96,7.36-3.04,10.4-5.6l1.28-1.12c2.88-2.72,5.44-5.92,8-9.12l1.12-1.44c3.2-3.84,6.08-7.84,8.8-12,.16-.32.48-.64.8-.8l.8.32Z"/>
      <path class="cls-5" d="m330.94,79.68c.16.16.16.32.16.48-.16.32-.64.48-.96.64-4.32,1.92-7.2,5.44-10.08,8.8l-2.88,3.36-2.56,2.88c-4.16,4.64-8.48,9.44-13.76,13.28-1.6,1.12-3.52,1.92-5.44,2.4-.8.16-1.6.32-2.4.32-1.28,0-2.4-.32-3.36-.96-1.6-.96-2.72-2.56-3.2-4.64-.48-1.6-.64-3.2-.64-4.8.8-9.44,3.84-17.92,9.12-25.28.96-1.44,2.08-2.56,3.36-3.36,1.44-.8,3.04-.96,4.48-.48,1.44.64,2.4,1.92,2.88,3.52.64,2.56,0,5.12-.64,7.04-1.92,5.92-5.28,11.04-10.4,15.68-1.12,1.12-2.56,2.4-4.32,2.88-1.12.32-1.28.96-1.28,1.92v.48c.48,3.2,1.28,4.96,2.56,5.6,1.28.64,3.2,0,5.92-1.92,4-2.72,7.36-6.24,10.56-9.6l7.2-7.2c2.72-2.88,5.6-5.92,8.64-8.64,1.44-1.28,3.2-2.4,5.28-3.2.8-.32,1.6-.16,1.92.48l-.16.32Zm-41.12,20c-.16.48-.16.64,0,.8.16.16.32,0,.64-.32.8-.48,1.44-.96,2.08-1.6,4.32-4.16,7.52-9.12,9.6-14.72.64-1.76.96-3.68,1.12-5.76v-.48c0-.32,0-.8-.16-1.28-.16-.8-.32-1.28-.64-1.44h-.16c-.32,0-.8.16-1.44.48-1.12.64-2.08,1.6-3.2,3.04-2.88,4-4.96,8.64-6.72,14.72-.48,1.6-.8,3.2-1.12,4.8l-.48,1.44.48.32Z"/>
      <path class="cls-2" d="m373.18,50.24c.48.32,1.12.64.8,1.28-.32.64-.96.32-1.44.16-1.6-.64-3.36-1.28-4.96-1.6-2.56-.48-4.96-.8-7.52-1.12l-2.72-.48c-5.44-.8-10.88-1.28-16.32-1.12-1.76,0-3.68.16-5.6.32-1.28.16-1.76.64-1.92,1.92,0,.96-.16,1.76-.16,2.72-.48,8-.96,15.84-.96,23.84,0,2.72.16,5.28.16,8,.32,12.8.8,25.6,1.76,38.24.32,4.96.48,9.92.64,14.88,0,.96-.16,2.08-.32,3.04-.16,1.12-.96,1.44-1.92,1.12-.8-.32-1.28-.8-.96-1.76.64-1.76.32-3.68.16-5.44l-.96-11.36-1.44-19.84c-.48-7.52-.8-15.04-.8-22.72,0-2.88,0-5.76.16-8.64,0-1.76.16-3.68.16-5.44.16-5.44.48-10.72.96-16.16.16-1.12-.32-1.28-1.28-1.12-6.24,1.12-12.16,2.88-17.92,5.44-.8.32-1.6.64-2.4,1.12l-3.84,1.92c-1.28.8-2.56,1.6-3.52,2.72-.8.96-2.08.96-3.2.16v-.48c8.64-6.72,18.56-10.72,29.12-12.96,2.4-.48,2.88-.48,3.2-1.44.16-.48.16-1.28.32-2.56.48-6.4,1.12-12.8,1.76-19.2.16-.8,0-2.08,1.28-2.08,1.44,0,1.44,1.28,1.44,2.4,0,3.36-.32,6.56-.48,9.92-.16,2.4-.32,4.96-.32,7.36,0,.48-.16.96-.16,1.44-.16,2.56-.32,2.72,2.24,2.56,1.76-.16,3.68-.16,5.44-.16,9.92,0,19.52,1.92,29.12,4.16.96.16,1.76.48,2.56,1.12l-.16-.16Z"/>
      <path class="cls-6" d="m490.94,86.4c.8.16,1.44.48,1.92.96.48.64.64,1.44.48,2.24-.32,1.6-1.12,2.88-1.92,4.16-5.28,8.64-12.8,15.2-20.96,20.96-5.28,3.68-10.72,7.2-16.32,10.24-1.12.64-1.44,1.28-1.44,2.4s.16,2.4.16,3.68c.16,3.68.48,7.2.48,10.88,0,2.4,0,4.96-.16,7.36-.48,10.4-1.92,20.64-6.24,30.24-4.8,10.72-12.96,17.92-24,22.08-7.36,2.72-14.72,4.48-22.24,4.64-6.24.16-12.48-.64-18.72-2.4-10.24-2.88-19.36-7.84-26.24-16.32-2.56-3.2-4.48-6.72-5.12-10.72,0-.16-.16-.32-.32-.48v-3.84c.16-.16.32-.32.32-.48,1.76-6.56,6.08-10.56,12-13.44,8.64-4.16,17.76-6.88,26.72-9.6l7.68-2.4c17.44-5.76,34.56-12.16,50.88-20.8.96-.48,1.28-1.12,1.28-2.24-.16-1.28-.16-2.56-.16-3.84l-1.6-26.4c-.32-5.6-.32-11.2-.8-16.8,0-.64,0-1.28-.48-1.92-1.28.96-1.76,2.24-2.4,3.36-4.96,8.16-9.92,16.32-16,23.68-3.36,4.16-6.88,8.16-11.04,11.52-1.12.8-2.24,1.6-3.52,2.08-3.68,1.6-7.04.32-8.48-3.52-1.28-3.2-1.28-6.56-1.12-9.92.16-7.04,1.28-13.92,3.04-20.8l.96-3.52c.96-3.52,1.92-6.72,2.24-10.4,0-.64,0-1.92,1.28-1.6,1.12.32,2.08.96,1.92,2.4-.32,2.4-1.28,4.64-1.92,7.04-1.76,6.56-3.52,13.12-4.48,19.84-.32,2.72-.64,5.44-.64,8,0,2.72.32,5.28.96,7.84.32,1.76.8,2.72,1.6,3.04s1.76.16,3.2-.8c4.48-2.72,7.84-6.72,11.2-10.72,6.88-8,12.32-16.96,17.76-25.92.8-1.28,1.6-2.56,2.56-3.68,1.76-2.08,3.68-1.76,4.96.64.64,1.28.8,2.72.96,4.16.48,5.28.64,10.72.96,16.16l.48,8,1.44,20.16c0,.48,0,.8.16.96.16.16.32.16.96-.16,12.64-7.52,25.28-15.2,34.56-27.04,1.28-1.76,2.56-3.52,3.36-5.6.48-.96.8-1.92-.8-2.08-.32,0-.96-.16-.8-.64.16-.64.64-.32.96-.32l.48-.32Zm-44.16,82.88c2.4-9.44,3.2-19.04,3.04-28.8v-9.12q-.16-4.16-3.84-2.24c-11.52,5.76-23.36,10.4-35.52,14.4l-11.68,3.68c-2.72.96-5.44,1.92-8.16,2.72l-8.16,2.72-8.64,2.88c-5.76,2.08-11.36,4.48-16.32,8.48-3.36,2.72-4.64,5.92-4.8,9.76-.16,4.64,1.76,8.64,4.48,12.16,5.28,6.88,12.32,11.52,20.32,14.72,6.56,2.4,13.12,3.52,19.68,3.52,4.96,0,9.92-.48,14.88-1.6,18.24-4,30.24-14.56,34.72-32.96v-.32Z"/>
      <path class="cls-11" d="m543.58,124.8c.64.32,1.12.8,1.44,1.44-1.6,3.84-3.04,7.68-4.96,11.2-2.24,4.32-4.64,8.64-8.16,12.16-1.6,1.6-3.52,2.88-5.92,3.36-.64.16-1.12.16-1.76.16-1.76,0-3.2-.48-4.64-1.44-.96-.64-1.76-1.44-2.56-2.24-1.12-1.28-2.08-2.72-2.88-4.32-1.92-3.52-3.2-7.36-4.16-11.2-.64-2.24-1.28-4.48-1.44-6.88l-1.12-7.2-.32-3.84c0-.64,0-1.28-.16-1.92-.8-5.12-.48-10.24-.64-15.36,0-1.6.48-3.2.32-4.8v-1.12c-1.12,1.28-2.08,2.24-2.88,3.36l-2.24,2.56-2.24,2.56-2.72,2.88c-.96.96-1.76,1.92-2.72,2.72-2.24,2.08-4.48,4-7.2,5.44-1.12.64-2.4.8-3.68.8h-1.92c-1.28-.16-2.4-.96-3.36-1.92-1.6-1.6-2.4-3.52-2.88-5.6-.48-2.08-.8-4.16-.96-6.24-.16-.96-.32-1.92-.32-3.04-.16-.96-.16-2.08,0-3.2,0-1.12.16-2.4.16-3.52,0-1.76.16-3.36.32-5.12l.48-4.32c.16-1.92.48-3.84.8-5.76l.32-2.72.48-6.08c0-.32.16-.64.32-.8l.64-.48c1.12-.32,1.76.16,2.08,1.28-.16,1.12-.32,2.4-.64,3.68-.32,1.92-.64,3.84-.8,5.76-.16,1.76-.48,3.52-.8,5.12-.16.64-.16,1.12-.16,1.6s-.16,1.12-.16,1.6c-.16.96-.32,1.92-.32,3.04,0,1.28-.16,2.4-.16,3.68-.16,2.4-.16,4.96,0,7.36.16,3.52.64,7.04,1.92,10.4l.8,1.6c.64.96,1.44,1.6,2.56,2.08,3.04-.48,5.44-2.24,7.68-4.16,2.4-2.08,4.64-4.32,6.72-6.72,2.72-3.04,5.44-6.08,7.84-9.44l1.92-2.24c1.28-1.28,1.44-2.88,1.44-4.48l.48-4.96c0-.48.16-1.12.16-1.76,0-.48.16-.96.16-1.44.16-.96.32-1.92.32-2.88,0-1.12.32-2.24.48-3.36l.32-1.76,1.12-7.36.96-5.76,1.6-9.12c.8-4.96,2.08-9.92,3.52-14.88l.48-1.92c1.12-4.16,2.56-8.32,4.32-12.32.96-2.4,2.08-4.64,3.2-6.72l1.92-3.2c.96-1.44,1.92-2.88,3.2-4,.8-.8,1.76-1.44,2.72-2.08,2.4-1.44,4.8-1.28,6.88.64,2.08,1.92,2.88,4.32,3.36,6.88s.32,5.12.32,7.68c0,2.72-.32,5.44-.64,8-.8,5.44-2.24,10.72-4.16,15.84-.64,1.92-1.44,3.84-2.24,5.76-1.12,2.72-2.4,5.44-3.84,8.16-2.24,4.48-4.64,8.8-7.2,13.12l-5.28,8.32-1.12,1.76c-2.56,3.84-5.12,7.52-7.84,11.2-.16,3.84-.32,7.68-.32,11.52,0,1.28-.16,2.56-.16,3.84v3.84c0,3.36.32,6.72.64,10.08,0,.64.16,1.12.16,1.92.32,3.04.8,6.08,1.28,9.12l.32,1.76c.64,3.52,1.6,7.04,2.88,10.4.16.64.32,1.28.64,1.92.96,2.56,2.4,4.8,4.16,6.88.48.64.96,1.12,1.44,1.44.96.8,2.08.96,3.2.8l1.92-.64c1.28-.48,2.4-1.28,3.36-2.24,1.28-1.28,2.56-2.72,3.68-4.32,1.12-1.6,2.24-3.2,3.2-4.96,2.4-4.16,4.48-8.48,6.08-12.96.16-.64.32-.8,1.28-1.28l-.32-.64Zm-58.56-89.28c-.16,0-.32-.16-.48-.16-.64-.32-1.12-.8-.8-1.76l.64-1.76c0-.16.16-.48.16-.64.16-1.28,1.28-1.12,2.24-.96.96.16,1.92.32,2.08,1.28.16,1.6-2.4,4-3.84,3.84v.16Zm26.08,45.76l4.8-7.04,2.56-3.84c1.76-2.56,3.36-5.12,4.96-7.84l3.68-6.4,3.36-6.4.96-1.92c.64-1.28,1.12-2.56,1.6-3.84l1.6-4,1.44-4c.96-2.88,1.76-5.92,2.4-8.96l.48-2.24c.64-3.52,1.28-7.04,1.12-10.72-.16-1.28-.16-2.56-.16-3.84,0-2.24-.48-4.32-1.28-6.4-.48-1.44-1.28-2.4-2.56-2.72-.64.16-1.28.32-1.76.64-1.12.64-2.08,1.44-2.88,2.24-1.28,1.12-2.24,2.4-3.2,3.68-.96,1.28-1.76,2.72-2.4,4.16-3.04,6.08-4.96,12.48-6.88,18.88l-1.44,5.76-.64,2.4-1.44,7.2-.8,4.16c-.32,1.44-.48,2.72-.64,4l-.8,6.08c-.16.64-.32,1.44-.32,2.08l-.96,7.2c-.16,1.12-.16,2.24-.48,3.36-.48,2.4-.32,4.8-.8,7.2,0-.16.16-.32.16-.48,0,.48,0,1.12.32,1.6Z"/>
      <path class="cls-7" d="m580.53,148.8c0,.32.16.48.16.64s-.16.48-.48.48c-.8.16-1.6.16-1.92-.64-.48-1.12-.8-2.24-.96-3.36-3.36-15.84-6.24-31.68-7.52-47.68l-.48-7.52c-.32-6.4-.32-12.64-.16-19.04.16-5.12.64-10.08,1.12-15.2.32-3.52.48-7.2,1.12-10.72,0-.48,0-.96-.32-1.44-2.24,7.2-4.16,14.4-7.04,21.28-.48,1.12-.32,1.6.96,1.92,1.12.16,1.92.8,2.4,1.76.16.48.48.96-.16,1.28-.48.16-.8,0-.96-.48l-.48-.96c-.96-1.12-2.4-.96-3.04.48-1.76,3.84-3.68,7.52-5.76,11.2-1.12,2.08-2.24,4-3.52,5.92l-1.76,2.88c-1.28,2.08-2.72,4.16-4.16,6.08l-2.4,2.88c-1.6,1.76-3.2,3.36-5.12,4.8-.64.48-1.44.96-2.24,1.28-3.36,1.28-5.76-.48-5.44-4,.32-3.68,2.08-6.88,3.84-9.92,4.64-7.68,10.24-14.4,17.6-19.52,1.6-1.12,3.36-2.24,5.28-2.72,1.6-.48,2.08-1.6,2.56-2.88,4.16-10.08,7.2-20.48,9.6-31.04.96-4.48,2.08-8.8,3.2-13.12.16-.8,0-2.08,1.44-1.76,1.44.32,1.92,1.28,1.76,2.56-.32,3.52-.64,7.04-1.28,10.56-2.56,15.36-3.68,30.72-3.68,46.24,0,5.12,0,10.4.32,15.52.48,9.76,1.76,19.52,3.04,29.28,1.12,8.32,2.56,16.64,4.48,24.96Zm-40.8-49.28c4.8-4.48,8.8-9.76,12.16-15.36l-.16-.16c2.72-4.48,5.28-9.12,7.36-14.08-1.12.16-1.76.64-2.4,1.12-9.44,6.08-16,14.56-20.8,24.48-.48.96-.64,1.76-.96,2.72-.32.96-.48,2.08-.48,3.04,0,1.44.48,1.92,1.76,1.12,1.28-.8,2.4-1.76,3.52-2.88Z"/>
      <path class="cls-4" d="m618.77,80.32c.48.48,0,2.24,0,2.24-.32,1.28-.64,2.56-1.12,3.68-3.36,7.2-6.88,14.88-11.52,22.08l-.96,1.28c-.8,1.12-1.6,2.4-2.56,3.52-.64.8-1.44,1.44-2.24,2.08-.8.64-1.76,1.12-2.56,1.28-.48.16-.8.16-1.28.16-.32,0-.64,0-.96-.16-1.6-.48-2.88-1.76-3.68-3.68-1.44-3.2-1.6-6.72-1.76-10.08v-4.8c.16-6.72.64-12.8,1.44-18.72,0-.48.16-.8.32-1.12.16-.48.32-.96.32-1.6v-.16s0-.16.16-.32l.48-.32c.16,0,.48-.16.64-.16.32,0,.48.16.64.32.16.16.32.48.32.8v1.44c0,.96,0,1.92-.48,2.88-.64,1.44-.64,3.04-.64,4.64v5.44c0,.96-.16,2.08-.16,3.04-.16,2.08-.16,4-.16,6.08,0,1.6.16,3.04.32,4.64v.32c.16,2.4.48,4.96,1.44,7.2.48,1.12.96,1.6,1.44,1.76.48.16,1.12-.16,2.08-.96,2.24-1.76,3.84-4.16,5.6-6.72,3.36-5.28,6.72-11.36,10.24-18.72l1.6-3.2.96-1.76.64-1.28q.32-.8,1.28-1.28c.32-.16.48-.16.64,0-.16,0-.32.16-.48.16Zm-20.16-38.56l.48-.32c-.48,0-.96-.16-1.28-.64-.48-.64,0-1.28.32-1.76.16-.32.32-.48.16-.96-.32-.64-.32-1.28,0-1.76.48-.64,1.28-.96,2.24-.96.16.16.48.16.8.16.8.32,1.76.64,2.24,1.6.16.32.16.64.16.96-.16.8-.8,1.28-1.44,1.76l-.48.48c-.64.64-1.28.96-1.92,1.28-.32.16-.48.16-.8.16h-.48Z"/>
      <path class="cls-3" d="m656.69,54.72c.64,0,1.28,0,1.92.16l-.16-.16c1.76.64,2.88,2.88,2.4,4.96-.64,3.2-2.24,5.92-4,8.64-5.44,8.32-11.84,15.52-18.56,22.72l-2.08,2.08c-5.6,5.76-11.2,11.52-16.96,17.12l-2.24,2.08c-2.56,2.4-5.12,4.8-7.68,7.84l5.76.48c11.52.64,23.04,1.76,34.4,3.84,1.76.32,3.52.64,4.16,2.56-12.32-2.56-24.48-3.2-36.8-4-.96,0-2.08-.16-3.04-.16-1.44-.16-2.88-.32-4.32-.8-2.4-.96-2.88-2.56-1.12-4.64,2.56-2.88,5.44-5.44,8.16-8.16,1.44-1.28,2.72-2.72,4-4.16l2.24-2.24c9.44-9.76,18.88-19.36,27.2-30.08l1.92-2.4c2.56-3.36,4.96-6.88,6.4-10.88.32-.8.96-1.76.32-2.4-.64-.64-1.76-.32-2.56-.16-6.56,1.44-12.64,3.84-18.56,6.72-3.04,1.44-6.24,2.72-9.12,4.48-.8.48-1.44.96-2.08,1.6-.32.32-.8.32-1.12,0-.48-.48.16-.8.48-.96,1.44-1.12,3.04-2.08,4.8-2.72.96-.32,1.76-1.44,2.72-1.92,6.88-3.84,14.08-7.04,21.6-9.12.64-.16,1.28-.32,1.92-.32Z"/>
    </g>
  </g>
</svg>